<svg xmlns="http://www.w3.org/2000/svg" xmlns:xl="http://www.w3.org/1999/xlink" xmlns:dc="http://purl.org/dc/elements/1.1/" viewBox="305 3208 1259.3261 469.6834" width="1259.3261" height="469.6834"><defs><marker orient="auto" markerUnits="strokeWidth" id="FilledArrow_Marker" stroke-linejoin="miter" stroke-miterlimit="10" viewBox="-1 -3 7 6" markerWidth="7" markerHeight="6"><g><path d="M 4.8 0 L 0 -1.8 L 0 1.8 Z" fill="currentColor" stroke="currentColor" stroke-width="1"></path></g></marker><marker orient="auto" markerUnits="strokeWidth" id="FilledArrow_Marker_2" stroke-linejoin="miter" stroke-miterlimit="10" viewBox="-6 -3 7 6" markerWidth="7" markerHeight="6"><g><path d="M -4.8 0 L 0 1.8 L 0 -1.8 Z" fill="currentColor" stroke="currentColor" stroke-width="1"></path></g></marker></defs><g id="Canvas_1" stroke-dasharray="none" fill-opacity="1" stroke="none" stroke-opacity="1" fill="none"><title>Canvas 1</title><g id="Canvas_1_Layer_1"><title>Layer 1</title><g id="Graphic_212"><path d="M 399.8125 3519.3417 L 416.4375 3519.3417 L 416.4375 3486.0917 L 441.375 3486.0917 L 441.375 3519.3417 L 458 3519.3417 L 458 3444.529 L 399.8125 3444.529 Z M 399.8125 3427.904 L 458 3427.904 L 458 3436.2167 L 399.8125 3436.2167 Z M 333.3125 3469.4667 L 349.9375 3469.4667 L 349.9375 3486.0917 L 333.3125 3486.0917 Z M 333.3125 3436.2167 L 349.9375 3436.2167 L 349.9375 3452.8417 L 333.3125 3452.8417 Z M 333.3125 3402.9667 L 349.9375 3402.9667 L 349.9375 3419.5917 L 333.3125 3419.5917 Z M 366.5625 3469.4667 L 383.1875 3469.4667 L 383.1875 3486.0917 L 366.5625 3486.0917 Z M 366.5625 3436.2167 L 383.1875 3436.2167 L 383.1875 3452.8417 L 366.5625 3452.8417 Z M 366.5625 3402.9667 L 383.1875 3402.9667 L 383.1875 3419.5917 L 366.5625 3419.5917 Z M 325 3519.3417 L 391.5 3519.3417 L 391.5 3386.3417 L 325 3386.3417 Z" fill="#254a9f"></path><text transform="translate(360.04 3528.2417)" fill="black"><tspan font-family="Montserrat" font-size="22" fill="black" x="0" y="22">Office</tspan></text></g><g id="Line_213"><path d="M 484.7381 3474.386 C 500.5844 3476.531 530.56506 3479.4243 571 3478.1314 C 582.025 3477.779 592.9001 3477.145 603.32635 3476.341" marker-end="url(#FilledArrow_Marker)" marker-start="url(#FilledArrow_Marker_2)" stroke="#254a9f" stroke-linecap="round" stroke-linejoin="round" stroke-width="2"></path></g><g id="Graphic_214"><path d="M 1171.3998 3465.8126 C 1102.2776 3442.8417 1129.8418 3249.4647 1240.1071 3282.4604 C 1250.3373 3218.141 1378.561 3228.581 1377.7228 3282.4604 C 1458.123 3213.5478 1560.8697 3350.958 1491.9528 3419.871 C 1574.6496 3453.2814 1490.9092 3633.2934 1423.0401 3603.223 C 1417.6085 3653.343 1296.279 3670.8825 1285.6297 3603.223 C 1216.9267 3675.48 1073.6698 3564.3808 1171.3998 3465.8126 Z" fill="white"></path><path d="M 1171.3998 3465.8126 C 1102.2776 3442.8417 1129.8418 3249.4647 1240.1071 3282.4604 C 1250.3373 3218.141 1378.561 3228.581 1377.7228 3282.4604 C 1458.123 3213.5478 1560.8697 3350.958 1491.9528 3419.871 C 1574.6496 3453.2814 1490.9092 3633.2934 1423.0401 3603.223 C 1417.6085 3653.343 1296.279 3670.8825 1285.6297 3603.223 C 1216.9267 3675.48 1073.6698 3564.3808 1171.3998 3465.8126 Z" stroke="#003776" stroke-linecap="round" stroke-linejoin="round" stroke-width="2"></path></g><g id="Graphic_215"><path d="M 843.7571 3465.8126 C 774.6349 3442.8417 802.1991 3249.4647 912.4644 3282.4604 C 922.6946 3218.141 1050.9184 3228.581 1050.0801 3282.4604 C 1130.4803 3213.5478 1233.227 3350.958 1164.31 3419.871 C 1247.0069 3453.2814 1163.2665 3633.2934 1095.3974 3603.223 C 1089.9659 3653.343 968.6364 3670.8825 957.987 3603.223 C 889.284 3675.48 746.02715 3564.3808 843.7571 3465.8126 Z" fill="#f6fafc"></path><path d="M 843.7571 3465.8126 C 774.6349 3442.8417 802.1991 3249.4647 912.4644 3282.4604 C 922.6946 3218.141 1050.9184 3228.581 1050.0801 3282.4604 C 1130.4803 3213.5478 1233.227 3350.958 1164.31 3419.871 C 1247.0069 3453.2814 1163.2665 3633.2934 1095.3974 3603.223 C 1089.9659 3653.343 968.6364 3670.8825 957.987 3603.223 C 889.284 3675.48 746.02715 3564.3808 843.7571 3465.8126 Z" stroke="#003776" stroke-linecap="round" stroke-linejoin="round" stroke-width="2"></path></g><g id="Group_216"><title>f9e83624-a867-48de-977f-145dbfcb8be5</title><g id="Group_217"><title>ba7685c8-24b9-4864-a8c7-07a25a7b6aed</title><g id="Graphic_233"><path d="M 968.2902 3438.2827 L 974.4686 3432.7527 L 991.1228 3451.36 L 984.9444 3456.89 Z" fill="#63c0a5"></path></g><g id="Graphic_232"><path d="M 967.607 3446.2027 C 964.6309 3446.2027 961.9536 3445.5333 959.5752 3444.1947 C 957.2194 3442.881 955.2761 3440.9373 953.9631 3438.581 C 952.6002 3436.1804 951.9187 3433.4914 951.9187 3430.5143 C 951.9187 3427.537 952.6002 3424.8477 953.9631 3422.446 C 955.2765 3420.09 957.2197 3418.1464 959.5752 3416.8324 C 961.9556 3415.4938 964.6328 3414.824 967.607 3414.823 C 970.5813 3414.822 973.2586 3415.492 975.6389 3416.8324 C 977.9966 3418.146 979.9419 3420.0904 981.2568 3422.4474 C 982.6198 3424.849 983.3013 3427.5386 983.3013 3430.5157 C 983.322 3432.6976 982.909 3434.862 982.0863 3436.883 L 987.8707 3443.3448 C 988.0985 3443.006 988.3219 3442.6657 988.5337 3442.3138 C 990.6161 3438.8265 991.6578 3434.8933 991.6588 3430.5143 C 991.6597 3426.1352 990.618 3422.202 988.5337 3418.7148 C 986.4674 3415.2443 983.4868 3412.4087 979.9177 3410.518 C 976.26 3408.5406 972.1565 3407.552 967.607 3407.552 C 963.0576 3407.552 958.9546 3408.5406 955.2979 3410.518 C 951.7226 3412.414 948.7408 3415.2613 946.6819 3418.7454 C 944.5975 3422.2502 943.5558 3426.173 943.5568 3430.5143 C 943.5578 3434.8554 944.5995 3438.778 946.6819 3442.2817 C 948.7408 3445.7658 951.7226 3448.613 955.2979 3450.509 C 958.9546 3452.4865 963.0576 3453.475 967.607 3453.475 C 970.6511 3453.4982 973.6763 3452.997 976.5501 3451.993 L 971.068 3445.8697 C 969.928 3446.0936 968.7688 3446.205 967.607 3446.2027 Z" fill="#63c0a5"></path></g><g id="Graphic_231"><rect x="926.357" y="3407.552" width="8.315149" height="44.776797" fill="#273c88"></rect></g><g id="Graphic_230"><path d="M 1005.418 3447.755 C 1001.9648 3444.2794 1000.2378 3439.2997 1000.2368 3432.8158 L 1000.2368 3407.552 L 1008.5607 3407.552 L 1008.5607 3432.499 C 1008.5607 3441.2842 1012.3576 3445.6764 1019.9513 3445.6755 C 1027.4993 3445.6755 1031.2733 3441.2833 1031.2733 3432.499 L 1031.2733 3407.552 L 1039.4614 3407.552 L 1039.4614 3432.8158 C 1039.4614 3439.2977 1037.745 3444.2765 1034.3122 3447.752 C 1030.8795 3451.2277 1026.0667 3452.9664 1019.8739 3452.9684 C 1013.6909 3452.9684 1008.8717 3451.2306 1005.4166 3447.755" fill="#273c88"></path></g><g id="Graphic_229"><path d="M 1079.809 3414.5893 L 1090.6841 3414.5893 C 1093.967 3414.5893 1096.856 3415.2182 1099.3512 3416.476 C 1101.8464 3417.734 1103.7653 3419.5248 1105.1078 3421.8486 C 1106.4513 3424.1735 1107.1231 3426.8707 1107.1231 3429.9404 C 1107.1231 3433.01 1106.4513 3435.7072 1105.1078 3438.032 C 1103.7643 3440.357 1101.8454 3442.1483 1099.3512 3443.406 C 1096.857 3444.664 1093.9679 3445.293 1090.6841 3445.293 L 1079.809 3445.293 Z M 1071.4938 3407.552 L 1071.4938 3452.3288 L 1091.0623 3452.3288 C 1095.8328 3452.3288 1100.0755 3451.4014 1103.7906 3449.547 C 1107.5057 3447.692 1110.384 3445.0694 1112.4256 3441.6785 C 1114.47 3438.2896 1115.4923 3434.377 1115.4923 3429.9404 C 1115.4923 3425.504 1114.47 3421.591 1112.4256 3418.202 C 1110.3811 3414.8123 1107.5028 3412.1895 1103.7906 3410.334 C 1100.0784 3408.4783 1095.8376 3407.551 1091.0682 3407.552 Z" fill="#273c88"></path></g><g id="Graphic_228"><path d="M 888.0407 3407.552 L 888.0407 3452.3288 L 919.7679 3452.3288 L 919.7679 3445.293 L 896.3558 3445.293 L 896.3558 3407.552 Z" fill="#273c88"></path></g><g id="Graphic_227"><rect x="1051.09" y="3407.552" width="8.315149" height="44.776797" fill="#273c88"></rect></g><g id="Graphic_226"><rect x="991.6792" y="3458.6783" width="123.96347" height="19.453125" fill="#63c0a5"></rect></g><g id="Graphic_225"><path d="M 1021.784 3463.829 C 1024.6507 3463.829 1026.6323 3465.6806 1026.6323 3468.391 C 1026.6323 3471.1014 1024.6244 3472.9545 1021.692 3472.9545 L 1017.8645 3472.9545 L 1017.8645 3463.829 Z M 1020.1777 3471.103 L 1021.8322 3471.103 C 1023.2531 3471.103 1024.2695 3470.0076 1024.2695 3468.404 C 1024.2695 3466.8007 1023.202 3465.6806 1021.7285 3465.6806 L 1020.1806 3465.6806 Z" fill="white"></path></g><g id="Graphic_224"><path d="M 1029.683 3471.2722 L 1029.0185 3472.9545 L 1026.6265 3472.9545 L 1030.5694 3463.829 L 1032.9541 3463.829 L 1036.8007 3472.9545 L 1034.3181 3472.9545 L 1033.6653 3471.2722 Z M 1031.691 3466.1362 L 1030.3606 3469.5125 L 1032.9892 3469.5125 Z" fill="white"></path></g><g id="Graphic_223"><path d="M 1040.894 3465.6937 L 1040.894 3472.9545 L 1038.5735 3472.9545 L 1038.5735 3465.6937 L 1035.8485 3465.6937 L 1035.8485 3463.8158 L 1043.6438 3463.8158 L 1043.6438 3465.6937 Z" fill="white"></path></g><g id="Graphic_222"><path d="M 1045.7291 3471.2722 L 1045.0647 3472.9545 L 1042.68 3472.9545 L 1046.6229 3463.829 L 1049.009 3463.829 L 1052.8541 3472.9545 L 1050.3716 3472.9545 L 1049.7202 3471.2722 Z M 1047.7371 3466.1362 L 1046.4067 3469.5125 L 1049.0353 3469.5125 Z" fill="white"></path></g><g id="Graphic_221"><path d="M 1057.6703 3463.829 C 1060.0068 3463.829 1061.346 3464.9767 1061.346 3467.0095 C 1061.346 3469.1474 1060.0039 3470.386 1057.6703 3470.386 L 1056.0143 3470.386 L 1056.0143 3472.9545 L 1053.6938 3472.9545 L 1053.6938 3463.829 Z M 1056.0143 3468.562 L 1057.5535 3468.562 C 1058.5757 3468.562 1059.1598 3468.052 1059.1598 3467.0884 C 1059.1598 3466.1245 1058.5757 3465.6543 1057.5535 3465.6543 L 1056.0143 3465.6543 Z" fill="white"></path></g><g id="Graphic_220"><path d="M 1071.8268 3468.3793 C 1071.8268 3471.0386 1069.7152 3473.0524 1066.8865 3473.0524 C 1064.0578 3473.0524 1061.9593 3471.0444 1061.9593 3468.3793 C 1061.9593 3465.714 1064.071 3463.7515 1066.8865 3463.7515 C 1069.702 3463.7515 1071.8268 3465.7317 1071.8268 3468.3793 Z M 1064.3309 3468.391 C 1064.3309 3469.93 1065.5181 3471.116 1066.9128 3471.116 C 1068.3074 3471.116 1069.4406 3469.93 1069.4406 3468.391 C 1069.4406 3466.852 1068.3205 3465.6937 1066.9128 3465.6937 C 1065.505 3465.6937 1064.3309 3466.8533 1064.3309 3468.391 Z" fill="white"></path></g><g id="Graphic_219"><path d="M 1077.1979 3470.386 L 1075.3725 3470.386 L 1075.3725 3472.9545 L 1073.052 3472.9545 L 1073.052 3463.829 L 1077.1322 3463.829 C 1079.5432 3463.829 1080.9291 3464.9767 1080.9291 3467.0095 C 1080.9291 3468.404 1080.3449 3469.409 1079.273 3469.9433 L 1081.189 3472.9545 L 1078.5604 3472.9545 Z M 1077.1322 3468.562 C 1078.1354 3468.562 1078.7225 3468.052 1078.7225 3467.0884 C 1078.7225 3466.1245 1078.1384 3465.6543 1077.1322 3465.6543 L 1075.3798 3465.6543 L 1075.3798 3468.562 Z" fill="white"></path></g><g id="Graphic_218"><path d="M 1086.7135 3465.6937 L 1086.7135 3472.9545 L 1084.393 3472.9545 L 1084.393 3465.6937 L 1081.668 3465.6937 L 1081.668 3463.8158 L 1089.4633 3463.8158 L 1089.4633 3465.6937 Z" fill="white"></path></g></g></g><g id="Graphic_234"><text transform="translate(1236.1009 3499)" fill="black"><tspan font-family="Montserrat" font-size="22" fill="black" x="50.2195" y="22">Internet</tspan></text></g><g id="Graphic_235"><path d="M 1359.818 3466.1753 C 1356.3464 3469.647 1352.3732 3472.455 1347.9875 3474.5573 C 1351.1786 3470.3168 1353.8318 3465.0005 1355.7557 3458.9417 L 1365.6458 3458.9417 C 1363.9826 3461.542 1362.0356 3463.961 1359.818 3466.1753 M 1293.323 3458.9417 L 1303.2131 3458.9417 C 1305.137 3465.0005 1307.7902 3470.3168 1310.9813 3474.5573 C 1306.5956 3472.455 1302.6224 3469.647 1299.1508 3466.1753 C 1296.9332 3463.961 1294.9862 3461.542 1293.323 3458.9417 M 1299.1508 3405.5048 C 1302.6224 3402.033 1306.5956 3399.225 1310.9813 3397.1228 C 1307.7902 3401.3633 1305.137 3406.683 1303.2131 3412.7417 L 1293.323 3412.7417 C 1294.9862 3410.1413 1296.9332 3407.719 1299.1508 3405.5048 M 1365.6458 3412.7417 L 1355.7557 3412.7417 C 1353.8351 3406.683 1351.1786 3401.3633 1347.9875 3397.1228 C 1352.3732 3399.225 1356.3464 3402.033 1359.818 3405.5048 C 1362.0356 3407.719 1363.9826 3410.1413 1365.6458 3412.7417 M 1359.1184 3432.5417 C 1358.9369 3427.9415 1358.3792 3423.5096 1357.4948 3419.3417 L 1369.0976 3419.3417 C 1370.8565 3423.559 1371.9191 3427.9844 1372.2623 3432.5417 Z M 1332.7844 3452.3417 L 1332.7844 3439.1417 L 1352.5151 3439.1417 C 1352.3204 3443.6957 1351.7231 3448.1144 1350.7331 3452.3417 Z M 1344.8261 3467.449 C 1342.6052 3471.1484 1339.985 3474.1217 1337.2427 3476.0588 C 1335.7808 3477.0884 1334.2892 3477.821 1332.7844 3478.263 L 1332.7844 3458.9417 L 1348.796 3458.9417 C 1347.6872 3462.0437 1346.3606 3464.885 1344.8261 3467.449 M 1326.1844 3458.9417 L 1326.1844 3478.2566 C 1324.6796 3477.8177 1323.188 3477.0884 1321.7261 3476.052 C 1318.9838 3474.1184 1316.3636 3471.145 1314.1427 3467.4458 C 1312.6082 3464.885 1311.2816 3462.0404 1310.1728 3458.9384 Z M 1306.4537 3439.1417 L 1326.1844 3439.1417 L 1326.1844 3452.3417 L 1308.2357 3452.3417 C 1307.2457 3448.1144 1306.6484 3443.6957 1306.4537 3439.1417 M 1289.8745 3452.3417 C 1288.1156 3448.121 1287.0563 3443.6957 1286.7098 3439.1417 L 1299.8537 3439.1417 C 1300.0352 3443.7386 1300.5929 3448.1705 1301.4773 3452.3417 Z M 1326.1844 3419.3417 L 1326.1844 3432.5417 L 1306.4537 3432.5417 C 1306.6484 3427.9877 1307.2457 3423.5657 1308.2357 3419.3417 Z M 1314.1427 3404.231 C 1316.3636 3400.5317 1318.9838 3397.5584 1321.7261 3395.6213 C 1323.188 3394.5917 1324.6796 3393.859 1326.1844 3393.417 L 1326.1844 3412.7417 L 1310.1728 3412.7417 C 1311.2816 3409.6364 1312.6082 3406.7918 1314.1427 3404.231 M 1332.7844 3412.7417 L 1332.7844 3393.4235 C 1334.2892 3393.8624 1335.7808 3394.595 1337.2427 3395.628 C 1339.985 3397.5617 1342.6052 3400.535 1344.8261 3404.2343 C 1346.3606 3406.795 1347.6872 3409.6397 1348.796 3412.745 Z M 1350.7331 3419.3417 C 1351.7231 3423.5657 1352.3204 3427.9877 1352.5151 3432.5417 L 1332.7844 3432.5417 L 1332.7844 3419.3417 Z M 1301.4773 3419.3417 C 1300.5929 3423.5096 1300.0352 3427.9415 1299.8537 3432.5417 L 1286.7098 3432.5417 C 1287.053 3427.9844 1288.1156 3423.559 1289.8745 3419.3417 Z M 1357.4915 3452.3417 C 1358.3759 3448.1705 1358.9336 3443.7386 1359.1151 3439.1417 L 1372.259 3439.1417 C 1371.9158 3443.6957 1370.8532 3448.121 1369.0943 3452.3417 Z M 1329.4844 3386.3417 C 1302.1472 3386.3417 1279.9844 3408.501 1279.9844 3435.8417 C 1279.9844 3463.179 1302.1472 3485.3417 1329.4844 3485.3417 C 1356.8216 3485.3417 1378.9844 3463.179 1378.9844 3435.8417 C 1378.9844 3408.501 1356.8216 3386.3417 1329.4844 3386.3417" fill="#254a9f"></path></g><g id="Graphic_236"><path d="M 616.8855 3475.952 C 585.084 3465.3835 597.7657 3376.4153 648.4961 3391.596 C 653.2028 3362.004 712.1955 3366.807 711.80985 3391.596 C 748.8001 3359.891 796.0714 3423.11 764.36435 3454.815 C 802.4112 3470.1866 763.8842 3553.006 732.6593 3539.171 C 730.1603 3562.2302 674.3395 3570.2997 669.44 3539.171 C 637.83136 3572.415 571.9223 3521.3007 616.8855 3475.952 Z" fill="white"></path><path d="M 616.8855 3475.952 C 585.084 3465.3835 597.7657 3376.4153 648.4961 3391.596 C 653.2028 3362.004 712.1955 3366.807 711.80985 3391.596 C 748.8001 3359.891 796.0714 3423.11 764.36435 3454.815 C 802.4112 3470.1866 763.8842 3553.006 732.6593 3539.171 C 730.1603 3562.2302 674.3395 3570.2997 669.44 3539.171 C 637.83136 3572.415 571.9223 3521.3007 616.8855 3475.952 Z" stroke="#003776" stroke-linecap="round" stroke-linejoin="round" stroke-width="2"></path><text transform="translate(625.74805 3452.3835)" fill="black"><tspan font-family="Montserrat" font-size="22" fill="black" x="46.57645" y="22">ISP</tspan></text></g><g id="Line_237"><path d="M 791.5317 3467.7454 C 803.4279 3467.7366 815.7957 3467.6185 828.3023 3467.345" marker-end="url(#FilledArrow_Marker)" marker-start="url(#FilledArrow_Marker_2)" stroke="#254a9f" stroke-linecap="round" stroke-linejoin="round" stroke-width="2"></path></g></g></g></svg>